<svg xmlns="http://www.w3.org/2000/svg" xmlns:xlink="http://www.w3.org/1999/xlink" width="1640" zoomAndPan="magnify" viewBox="0 0 1230 337.499995" height="450" preserveAspectRatio="xMidYMid meet" version="1.0"><defs><g/></defs><g fill="#303030" fill-opacity="1"><g transform="translate(43.141041, 153.487606)"><g><path d="M 24.71875 -58.65625 L 24.71875 -10.796875 C 24.71875 -7.296875 23.597656 -4.617188 21.359375 -2.765625 C 19.128906 -0.921875 16.457031 0 13.34375 0 C 10.21875 0 7.519531 -0.921875 5.25 -2.765625 C 2.976562 -4.617188 1.84375 -7.296875 1.84375 -10.796875 L 1.84375 -71.421875 C 1.84375 -78.929688 5.675781 -82.6875 13.34375 -82.6875 L 33.078125 -82.734375 L 38.21875 -82.453125 C 41.6875 -82.066406 45.113281 -81.273438 48.5 -80.078125 C 53.582031 -78.304688 58.09375 -75.601562 62.03125 -71.96875 C 65.976562 -68.332031 69.175781 -63.835938 71.625 -58.484375 C 74.070312 -53.140625 75.296875 -46.828125 75.296875 -39.546875 L 75.296875 -11.609375 C 75.296875 -9.679688 74.957031 -7.992188 74.28125 -6.546875 C 73.601562 -5.109375 72.71875 -3.890625 71.625 -2.890625 C 70.53125 -1.890625 69.289062 -1.140625 67.90625 -0.640625 C 66.519531 -0.140625 65.078125 0.109375 63.578125 0.109375 C 62.066406 0.109375 60.597656 -0.140625 59.171875 -0.640625 C 57.753906 -1.140625 56.515625 -1.890625 55.453125 -2.890625 C 54.398438 -3.890625 53.535156 -5.109375 52.859375 -6.546875 C 52.179688 -7.992188 51.84375 -9.679688 51.84375 -11.609375 L 51.84375 -41.34375 C 51.84375 -44.570312 51.332031 -47.367188 50.3125 -49.734375 C 49.300781 -52.109375 47.71875 -54.140625 45.5625 -55.828125 C 43.40625 -57.523438 40.015625 -58.585938 35.390625 -59.015625 C 34.117188 -59.085938 32.925781 -59.160156 31.8125 -59.234375 L 27.375 -59.234375 C 26.101562 -59.160156 25.21875 -58.96875 24.71875 -58.65625 Z M 24.71875 -58.65625 "/></g></g></g><g fill="#303030" fill-opacity="1"><g transform="translate(120.27802, 153.487606)"><g><path d="M 3.296875 -41.625 C 3.296875 -47.519531 4.398438 -53.035156 6.609375 -58.171875 C 8.828125 -63.304688 11.859375 -67.796875 15.703125 -71.640625 C 19.554688 -75.492188 24.050781 -78.523438 29.1875 -80.734375 C 34.320312 -82.953125 39.835938 -84.0625 45.734375 -84.0625 C 51.660156 -84.0625 57.203125 -82.953125 62.359375 -80.734375 C 67.515625 -78.523438 72.003906 -75.492188 75.828125 -71.640625 C 79.660156 -67.796875 82.703125 -63.304688 84.953125 -58.171875 C 87.210938 -53.035156 88.34375 -47.519531 88.34375 -41.625 C 88.34375 -35.695312 87.210938 -30.171875 84.953125 -25.046875 C 82.703125 -19.929688 79.660156 -15.441406 75.828125 -11.578125 C 72.003906 -7.710938 67.515625 -4.679688 62.359375 -2.484375 C 57.203125 -0.285156 51.660156 0.8125 45.734375 0.8125 C 39.835938 0.8125 34.320312 -0.285156 29.1875 -2.484375 C 24.050781 -4.679688 19.554688 -7.710938 15.703125 -11.578125 C 11.859375 -15.441406 8.828125 -19.929688 6.609375 -25.046875 C 4.398438 -30.171875 3.296875 -35.695312 3.296875 -41.625 Z M 26.5625 -41.28125 C 26.5625 -38.582031 27.078125 -36.066406 28.109375 -33.734375 C 29.148438 -31.410156 30.535156 -29.382812 32.265625 -27.65625 C 34.003906 -25.925781 36.035156 -24.566406 38.359375 -23.578125 C 40.691406 -22.597656 43.1875 -22.109375 45.84375 -22.109375 C 48.539062 -22.109375 51.050781 -22.597656 53.375 -23.578125 C 55.707031 -24.566406 57.757812 -25.925781 59.53125 -27.65625 C 61.300781 -29.382812 62.695312 -31.410156 63.71875 -33.734375 C 64.738281 -36.066406 65.25 -38.582031 65.25 -41.28125 C 65.25 -43.9375 64.738281 -46.445312 63.71875 -48.8125 C 62.695312 -51.1875 61.300781 -53.238281 59.53125 -54.96875 C 57.757812 -56.695312 55.707031 -58.082031 53.375 -59.125 C 51.050781 -60.164062 48.539062 -60.6875 45.84375 -60.6875 C 43.1875 -60.6875 40.691406 -60.164062 38.359375 -59.125 C 36.035156 -58.082031 34.003906 -56.695312 32.265625 -54.96875 C 30.535156 -53.238281 29.148438 -51.1875 28.109375 -48.8125 C 27.078125 -46.445312 26.5625 -43.9375 26.5625 -41.28125 Z M 26.5625 -41.28125 "/></g></g></g><g fill="#303030" fill-opacity="1"><g transform="translate(211.907061, 153.487606)"><g><path d="M 50.0625 -10.96875 C 50.0625 -7.195312 48.914062 -4.347656 46.625 -2.421875 C 44.332031 -0.492188 41.628906 0.46875 38.515625 0.46875 C 35.429688 0.46875 32.765625 -0.492188 30.515625 -2.421875 C 28.265625 -4.347656 27.140625 -7.195312 27.140625 -10.96875 L 27.140625 -60.046875 L 13.34375 -60.046875 C 9.6875 -60.046875 6.851562 -61.191406 4.84375 -63.484375 C 2.84375 -65.773438 1.84375 -68.5 1.84375 -71.65625 C 1.84375 -74.8125 2.84375 -77.535156 4.84375 -79.828125 C 6.851562 -82.117188 9.6875 -83.265625 13.34375 -83.265625 L 63.625 -83.265625 C 67.28125 -83.265625 70.128906 -82.117188 72.171875 -79.828125 C 74.210938 -77.535156 75.234375 -74.8125 75.234375 -71.65625 C 75.234375 -68.5 74.210938 -65.773438 72.171875 -63.484375 C 70.128906 -61.191406 67.28125 -60.046875 63.625 -60.046875 L 50.0625 -60.046875 Z M 50.0625 -10.96875 "/></g></g></g><g fill="#303030" fill-opacity="1"><g transform="translate(289.679162, 153.487606)"><g><path d="M 27.484375 -10.96875 C 27.484375 -7.195312 26.347656 -4.347656 24.078125 -2.421875 C 21.804688 -0.492188 19.128906 0.46875 16.046875 0.46875 C 12.890625 0.46875 10.1875 -0.492188 7.9375 -2.421875 C 5.6875 -4.347656 4.5625 -7.195312 4.5625 -10.96875 L 4.5625 -72.234375 C 4.5625 -75.890625 5.6875 -78.695312 7.9375 -80.65625 C 10.1875 -82.625 12.890625 -83.609375 16.046875 -83.609375 C 19.128906 -83.609375 21.804688 -82.625 24.078125 -80.65625 C 26.347656 -78.695312 27.484375 -75.890625 27.484375 -72.234375 Z M 27.484375 -10.96875 "/></g></g></g><g fill="#303030" fill-opacity="1"><g transform="translate(322.069769, 153.487606)"><g><path d="M 32.625 -60.046875 C 29.738281 -59.972656 28.023438 -59.316406 27.484375 -58.078125 L 27.484375 -53.75 C 27.910156 -52.71875 29.394531 -52.140625 31.9375 -52.015625 L 55.71875 -52.015625 C 59.300781 -52.015625 62.035156 -50.925781 63.921875 -48.75 C 65.804688 -46.582031 66.75 -44.015625 66.75 -41.046875 C 66.75 -38.046875 65.804688 -35.457031 63.921875 -33.28125 C 62.035156 -31.113281 59.300781 -30.03125 55.71875 -30.03125 L 30.890625 -30.03125 C 28.890625 -29.90625 27.753906 -28.804688 27.484375 -26.734375 L 27.484375 -11.609375 C 27.484375 -7.796875 26.335938 -4.925781 24.046875 -3 C 21.753906 -1.070312 19.085938 -0.109375 16.046875 -0.109375 C 12.972656 -0.109375 10.304688 -1.070312 8.046875 -3 C 5.796875 -4.925781 4.671875 -7.796875 4.671875 -11.609375 L 4.671875 -71.65625 C 4.671875 -79.394531 8.460938 -83.265625 16.046875 -83.265625 L 60.796875 -83.265625 C 64.453125 -83.265625 67.28125 -82.117188 69.28125 -79.828125 C 71.289062 -77.535156 72.296875 -74.8125 72.296875 -71.65625 C 72.296875 -68.5 71.289062 -65.773438 69.28125 -63.484375 C 67.28125 -61.191406 64.453125 -60.046875 60.796875 -60.046875 Z M 32.625 -60.046875 "/></g></g></g><g fill="#303030" fill-opacity="1"><g transform="translate(396.839516, 153.487606)"><g><path d="M 27.484375 -10.96875 C 27.484375 -7.195312 26.347656 -4.347656 24.078125 -2.421875 C 21.804688 -0.492188 19.128906 0.46875 16.046875 0.46875 C 12.890625 0.46875 10.1875 -0.492188 7.9375 -2.421875 C 5.6875 -4.347656 4.5625 -7.195312 4.5625 -10.96875 L 4.5625 -72.234375 C 4.5625 -75.890625 5.6875 -78.695312 7.9375 -80.65625 C 10.1875 -82.625 12.890625 -83.609375 16.046875 -83.609375 C 19.128906 -83.609375 21.804688 -82.625 24.078125 -80.65625 C 26.347656 -78.695312 27.484375 -75.890625 27.484375 -72.234375 Z M 27.484375 -10.96875 "/></g></g></g><g fill="#303030" fill-opacity="1"><g transform="translate(429.227297, 153.487606)"><g/></g></g><g fill="#303030" fill-opacity="1"><g transform="translate(458.557826, 153.487606)"><g/></g></g><g fill="#303030" fill-opacity="1"><g transform="translate(487.888354, 153.487606)"><g/></g></g><g fill="#303030" fill-opacity="1"><g transform="translate(517.218882, 153.487606)"><g/></g></g><g fill="#303030" fill-opacity="1"><g transform="translate(546.54941, 153.487606)"><g/></g></g><g fill="#38b6ff" fill-opacity="1"><g transform="translate(575.876901, 153.487606)"><g><path d="M 52.421875 -25.0625 L 52.421875 -71.828125 C 52.421875 -75.328125 53.535156 -78 55.765625 -79.84375 C 58.003906 -81.695312 60.679688 -82.625 63.796875 -82.625 C 66.921875 -82.625 69.617188 -81.695312 71.890625 -79.84375 C 74.160156 -78 75.296875 -75.328125 75.296875 -71.828125 L 75.296875 -11.203125 C 75.296875 -3.691406 71.460938 0.0625 63.796875 0.0625 L 44.0625 0.109375 L 38.921875 -0.171875 C 35.453125 -0.554688 32.023438 -1.347656 28.640625 -2.546875 C 23.554688 -4.316406 19.039062 -7.019531 15.09375 -10.65625 C 11.15625 -14.289062 7.960938 -18.78125 5.515625 -24.125 C 3.066406 -29.476562 1.84375 -35.796875 1.84375 -43.078125 L 1.84375 -71.015625 C 1.84375 -72.941406 2.179688 -74.625 2.859375 -76.0625 C 3.535156 -77.507812 4.421875 -78.734375 5.515625 -79.734375 C 6.609375 -80.734375 7.847656 -81.484375 9.234375 -81.984375 C 10.617188 -82.484375 12.0625 -82.734375 13.5625 -82.734375 C 15.070312 -82.734375 16.535156 -82.484375 17.953125 -81.984375 C 19.378906 -81.484375 20.617188 -80.734375 21.671875 -79.734375 C 22.734375 -78.734375 23.601562 -77.507812 24.28125 -76.0625 C 24.957031 -74.625 25.296875 -72.941406 25.296875 -71.015625 L 25.296875 -41.28125 C 25.296875 -38.050781 25.800781 -35.25 26.8125 -32.875 C 27.832031 -30.507812 29.421875 -28.476562 31.578125 -26.78125 C 33.734375 -25.09375 37.140625 -24.054688 41.796875 -23.671875 C 45.960938 -23.285156 49.253906 -23.171875 51.671875 -23.328125 C 51.984375 -23.441406 52.21875 -23.578125 52.375 -23.734375 L 52.375 -25.0625 Z M 52.421875 -25.0625 "/></g></g></g><g fill="#38b6ff" fill-opacity="1"><g transform="translate(653.01388, 153.487606)"><g><path d="M 70.265625 -9.765625 C 70.265625 -3.253906 66.4375 0 58.78125 0 L 15.765625 0 C 13.878906 0 12.222656 -0.332031 10.796875 -1 C 9.367188 -1.675781 8.179688 -2.546875 7.234375 -3.609375 C 6.296875 -4.671875 5.585938 -5.894531 5.109375 -7.28125 C 4.628906 -8.664062 4.390625 -10.109375 4.390625 -11.609375 C 4.390625 -13.023438 4.628906 -14.414062 5.109375 -15.78125 C 5.585938 -17.15625 6.316406 -18.378906 7.296875 -19.453125 C 8.285156 -20.535156 9.507812 -21.398438 10.96875 -22.046875 C 12.4375 -22.703125 14.113281 -23.03125 16 -23.03125 L 45.671875 -23.03125 C 48.785156 -23.03125 50.332031 -23.484375 50.3125 -24.390625 C 50.300781 -25.296875 50.296875 -26.269531 50.296875 -27.3125 C 50.296875 -28.425781 50.300781 -29.453125 50.3125 -30.390625 C 50.332031 -31.335938 48.785156 -31.8125 45.671875 -31.8125 L 15.359375 -31.8125 C 11.472656 -31.8125 8.441406 -32.53125 6.265625 -33.96875 C 4.085938 -35.414062 2.960938 -38.46875 2.890625 -43.125 C 2.578125 -48.550781 3.523438 -54.988281 5.734375 -62.4375 C 7.953125 -69.894531 12.21875 -75.226562 18.53125 -78.4375 C 24.84375 -81.65625 31.734375 -83.265625 39.203125 -83.265625 L 56.234375 -83.265625 C 58.203125 -83.265625 59.9375 -82.925781 61.4375 -82.25 C 62.9375 -81.570312 64.195312 -80.703125 65.21875 -79.640625 C 66.238281 -78.585938 67.007812 -77.367188 67.53125 -75.984375 C 68.050781 -74.597656 68.3125 -73.191406 68.3125 -71.765625 C 68.3125 -70.347656 68.144531 -69.128906 67.8125 -68.109375 C 67.488281 -67.085938 66.816406 -66.015625 65.796875 -64.890625 C 64.773438 -63.773438 63.492188 -62.878906 61.953125 -62.203125 C 60.410156 -61.535156 58.660156 -61.203125 56.703125 -61.203125 L 31.0625 -61.203125 C 28.71875 -61.203125 27.003906 -60.519531 25.921875 -59.15625 C 24.847656 -57.789062 24.175781 -56.453125 23.90625 -55.140625 C 23.632812 -53.828125 23.882812 -52.882812 24.65625 -52.3125 C 25.425781 -51.738281 26.597656 -51.453125 28.171875 -51.453125 L 57.328125 -51.453125 C 65.679688 -51.453125 69.945312 -49.421875 70.125 -45.359375 C 70.300781 -41.296875 70.347656 -29.429688 70.265625 -9.765625 Z M 70.265625 -9.765625 "/></g></g></g><path fill="#8c52ff" d="M 553.441406 67.234375 L 457.128906 67.234375 C 450.476562 67.234375 445.148438 72.625 445.148438 79.273438 L 445.089844 187.625 L 469.167969 163.546875 L 553.441406 163.546875 C 560.09375 163.546875 565.480469 158.160156 565.480469 151.507812 L 565.480469 79.273438 C 565.480469 72.625 560.09375 67.234375 553.441406 67.234375 Z M 487.226562 121.410156 L 475.1875 121.410156 L 475.1875 109.371094 L 487.226562 109.371094 Z M 511.304688 121.410156 L 499.265625 121.410156 L 499.265625 109.371094 L 511.304688 109.371094 Z M 535.382812 121.410156 L 523.34375 121.410156 L 523.34375 109.371094 L 535.382812 109.371094 Z M 535.382812 121.410156 " fill-opacity="1" fill-rule="nonzero"/><g fill="#5e17eb" fill-opacity="1"><g transform="translate(754.670283, 158.723258)"><g><path d="M 52.503906 -65.660156 C 66.914062 -65.660156 66.914062 -87.714844 52.503906 -87.714844 L 19.546875 -87.714844 C -1.628906 -87.714844 -5.136719 -65.535156 6.015625 -53.882812 L 21.804688 -37.464844 L 22.679688 -37.464844 L 22.679688 -65.660156 Z M 10.902344 -21.929688 L 41.601562 -21.929688 L 41.601562 -49.246094 L 42.476562 -49.246094 L 56.636719 -37.714844 C 71.296875 -25.4375 63.53125 -0.125 44.609375 -0.125 C 31.953125 -0.125 23.558594 0.125 10.902344 -0.125 C -3.632812 -0.125 -3.632812 -21.929688 10.902344 -21.929688 Z M 10.902344 -21.929688 "/></g></g></g><g fill="#5e17eb" fill-opacity="1"><g transform="translate(822.707457, 158.723258)"><g><path d="M 24.058594 -84.582031 L 8.019531 -71.171875 C 3.382812 -67.164062 0.5 -63.90625 0 -57.765625 L 0 -10.273438 C 0 -4.261719 5.011719 0.5 11.027344 0.5 C 17.042969 0.5 21.929688 -4.261719 21.929688 -10.273438 L 21.929688 -41.101562 L 43.730469 -20.925781 L 43.730469 -10.273438 C 43.730469 -4.261719 48.617188 0.5 54.757812 0.5 C 60.773438 0.5 65.535156 -4.261719 65.535156 -10.273438 L 65.535156 -57.765625 C 65.160156 -63.90625 62.527344 -67.164062 57.765625 -71.171875 L 41.351562 -84.582031 C 35.085938 -89.84375 30.449219 -89.59375 24.058594 -84.582031 Z M 43.730469 -42.730469 L 21.929688 -42.730469 L 21.929688 -65.535156 L 43.730469 -65.535156 Z M 43.730469 -42.730469 "/></g></g></g><g fill="#5e17eb" fill-opacity="1"><g transform="translate(893.375895, 158.723258)"><g><path d="M 10.273438 -87.714844 C -4.007812 -87.714844 -4.007812 -65.910156 10.273438 -65.910156 C 21.175781 -65.910156 8.769531 -65.910156 19.671875 -65.910156 L 19.671875 -10.398438 C 19.671875 4.386719 41.601562 4.386719 41.601562 -10.398438 C 41.601562 -28.570312 41.601562 -47.492188 41.601562 -65.910156 L 51 -65.910156 C 65.160156 -65.910156 65.160156 -87.714844 51 -87.714844 Z M 10.273438 -87.714844 "/></g></g></g><g fill="#5e17eb" fill-opacity="1"><g transform="translate(958.531196, 158.723258)"><g><path d="M 0 -69.167969 L 0 -18.546875 C 0 -8.269531 8.269531 0 18.546875 0 L 48.617188 0 C 54.632812 0 59.644531 -4.761719 59.644531 -10.777344 C 59.644531 -16.917969 54.632812 -21.675781 48.617188 -21.675781 L 21.929688 -21.675781 L 21.929688 -65.785156 L 48.867188 -65.785156 C 54.757812 -65.785156 59.894531 -70.796875 59.894531 -76.6875 C 59.894531 -82.699219 54.757812 -87.714844 48.867188 -87.714844 L 18.546875 -87.714844 C 8.269531 -87.714844 0 -79.316406 0 -69.167969 Z M 0 -69.167969 "/></g></g></g><g fill="#5e17eb" fill-opacity="1"><g transform="translate(1022.182911, 158.723258)"><g><path d="M -0.125 -69.042969 L -0.125 -18.671875 C -0.125 -9.648438 9.148438 -0.125 18.417969 -0.125 L 44.609375 -0.125 C 53.882812 -0.125 62.527344 -9.648438 62.527344 -18.671875 L 62.527344 -69.042969 C 62.527344 -79.441406 53.882812 -87.585938 43.980469 -87.585938 L 18.921875 -87.585938 C 8.898438 -87.585938 -0.125 -79.945312 -0.125 -69.042969 Z M 40.597656 -65.660156 L 40.597656 -21.804688 L 21.804688 -21.804688 L 21.804688 -65.660156 Z M 40.597656 -65.660156 "/></g></g></g><g fill="#5e17eb" fill-opacity="1"><g transform="translate(1089.718879, 158.723258)"><g><path d="M 20.425781 -84.328125 L 7.644531 -71.046875 C 3.632812 -66.660156 0.125 -63.90625 -0.125 -57.765625 L -0.125 -10.023438 C -0.125 4.136719 21.929688 4.136719 21.929688 -10.023438 L 21.929688 -65.535156 L 36.339844 -65.535156 L 36.339844 -10.023438 C 36.339844 4.511719 58.265625 4.511719 58.265625 -10.023438 L 58.265625 -65.535156 L 72.925781 -65.535156 L 72.925781 -10.023438 C 72.925781 4.136719 94.980469 4.136719 94.980469 -10.023438 L 94.980469 -57.765625 C 94.355469 -63.90625 91.097656 -66.660156 87.210938 -71.046875 L 74.429688 -84.328125 C 69.542969 -89.84375 62.027344 -89.84375 56.761719 -84.328125 L 47.238281 -74.179688 L 37.714844 -84.328125 C 32.828125 -89.84375 25.3125 -89.84375 20.425781 -84.328125 Z M 20.425781 -84.328125 "/></g></g></g><g fill="#000000" fill-opacity="1"><g transform="translate(44.273527, 240.952838)"><g><path d="M 2.296875 0 L 2.296875 -39.9375 L 10.1875 -39.9375 C 13.144531 -39.9375 15.296875 -39.300781 16.640625 -38.03125 C 17.992188 -36.769531 18.722656 -34.707031 18.828125 -31.84375 C 18.890625 -30.019531 18.921875 -28.40625 18.921875 -27 C 18.921875 -25.601562 18.890625 -24.09375 18.828125 -22.46875 C 18.691406 -18.738281 17.457031 -16.34375 15.125 -15.28125 L 19.46875 0 L 13.734375 0 L 10.03125 -14.375 L 7.734375 -14.375 L 7.734375 0 Z M 7.734375 -19.171875 L 10.140625 -19.171875 C 12.234375 -19.171875 13.328125 -20.171875 13.421875 -22.171875 C 13.585938 -25.492188 13.585938 -28.800781 13.421875 -32.09375 C 13.328125 -34.125 12.25 -35.140625 10.1875 -35.140625 L 7.734375 -35.140625 Z M 7.734375 -19.171875 "/></g></g></g><g fill="#000000" fill-opacity="1"><g transform="translate(80.616233, 240.952838)"><g><path d="M 2.296875 0 L 2.296875 -39.9375 L 16.578125 -39.9375 L 16.578125 -35.140625 L 7.734375 -35.140625 L 7.734375 -22.609375 L 16.078125 -22.609375 L 16.078125 -17.828125 L 7.734375 -17.828125 L 7.734375 -4.796875 L 16.578125 -4.796875 L 16.578125 0 Z M 2.296875 0 "/></g></g></g><g fill="#000000" fill-opacity="1"><g transform="translate(114.213426, 240.952838)"><g><path d="M 2.296875 0 L 2.296875 -39.9375 L 7.734375 -39.9375 L 7.734375 -4.796875 L 16.625 -4.796875 L 16.625 0 Z M 2.296875 0 "/></g></g></g><g fill="#000000" fill-opacity="1"><g transform="translate(147.660866, 240.952838)"><g><path d="M 1.140625 0 L 6.046875 -39.9375 L 15.03125 -39.9375 L 19.921875 0 L 14.421875 0 L 13.484375 -9.984375 L 7.640625 -9.984375 L 6.6875 0 Z M 8.140625 -14.734375 L 12.9375 -14.734375 L 12.078125 -23.515625 L 11.234375 -35.140625 L 9.828125 -35.140625 L 8.984375 -23.515625 Z M 8.140625 -14.734375 "/></g></g></g><g fill="#000000" fill-opacity="1"><g transform="translate(184.253165, 240.952838)"><g><path d="M 7.640625 0 L 7.640625 -9.984375 L 7.1875 -12.03125 L 1.140625 -39.9375 L 6.6875 -39.9375 L 8.640625 -29.453125 L 9.78125 -17.875 L 10.890625 -17.875 L 12.03125 -29.453125 L 13.984375 -39.9375 L 19.515625 -39.9375 L 13.484375 -12.03125 L 13.03125 -9.984375 L 13.03125 0 Z M 7.640625 0 "/></g></g></g><g fill="#000000" fill-opacity="1"><g transform="translate(220.595871, 240.952838)"><g/></g></g><g fill="#000000" fill-opacity="1"><g transform="translate(246.954906, 240.952838)"><g><path d="M 10.984375 0.40625 C 7.984375 0.40625 5.851562 -0.234375 4.59375 -1.515625 C 3.332031 -2.796875 2.632812 -4.921875 2.5 -7.890625 C 2.46875 -9.054688 2.457031 -10.1875 2.46875 -11.28125 C 2.488281 -12.382812 2.546875 -13.535156 2.640625 -14.734375 L 7.734375 -14.734375 C 7.671875 -13.367188 7.628906 -12.019531 7.609375 -10.6875 C 7.597656 -9.351562 7.640625 -8.101562 7.734375 -6.9375 C 7.804688 -5.9375 8.097656 -5.203125 8.609375 -4.734375 C 9.128906 -4.273438 9.921875 -4.046875 10.984375 -4.046875 C 12.015625 -4.046875 12.769531 -4.273438 13.25 -4.734375 C 13.738281 -5.203125 14.015625 -5.9375 14.078125 -6.9375 C 14.179688 -8.070312 14.222656 -9.09375 14.203125 -10 C 14.179688 -10.914062 14.140625 -11.992188 14.078125 -13.234375 C 14.015625 -14.191406 13.816406 -15.019531 13.484375 -15.71875 C 13.148438 -16.425781 12.550781 -16.894531 11.6875 -17.125 L 8.34375 -17.96875 C 6.070312 -18.539062 4.519531 -19.523438 3.6875 -20.921875 C 2.863281 -22.316406 2.414062 -24.210938 2.34375 -26.609375 C 2.34375 -27.503906 2.34375 -28.414062 2.34375 -29.34375 C 2.34375 -30.28125 2.359375 -31.195312 2.390625 -32.09375 C 2.492188 -35.0625 3.1875 -37.175781 4.46875 -38.4375 C 5.75 -39.707031 7.921875 -40.34375 10.984375 -40.34375 C 13.847656 -40.34375 15.925781 -39.707031 17.21875 -38.4375 C 18.519531 -37.175781 19.21875 -35.0625 19.3125 -32.09375 C 19.351562 -31.269531 19.363281 -30.265625 19.34375 -29.078125 C 19.320312 -27.898438 19.296875 -26.710938 19.265625 -25.515625 L 14.078125 -25.515625 C 14.109375 -26.773438 14.128906 -28.03125 14.140625 -29.28125 C 14.160156 -30.53125 14.140625 -31.785156 14.078125 -33.046875 C 14.015625 -34.941406 12.96875 -35.890625 10.9375 -35.890625 C 9.90625 -35.890625 9.140625 -35.65625 8.640625 -35.1875 C 8.140625 -34.726562 7.851562 -34.015625 7.78125 -33.046875 C 7.6875 -31.984375 7.644531 -30.910156 7.65625 -29.828125 C 7.675781 -28.742188 7.71875 -27.671875 7.78125 -26.609375 C 7.851562 -25.515625 8.0625 -24.648438 8.40625 -24.015625 C 8.757812 -23.378906 9.398438 -22.945312 10.328125 -22.71875 L 13.328125 -22.015625 C 15.691406 -21.453125 17.289062 -20.445312 18.125 -19 C 18.957031 -17.550781 19.421875 -15.628906 19.515625 -13.234375 C 19.546875 -12.160156 19.550781 -11.238281 19.53125 -10.46875 C 19.519531 -9.707031 19.5 -8.847656 19.46875 -7.890625 C 19.363281 -4.921875 18.660156 -2.796875 17.359375 -1.515625 C 16.066406 -0.234375 13.941406 0.40625 10.984375 0.40625 Z M 10.984375 0.40625 "/></g></g></g><g fill="#000000" fill-opacity="1"><g transform="translate(284.495647, 240.952838)"><g><path d="M 2.296875 0 L 2.296875 -39.9375 L 16.578125 -39.9375 L 16.578125 -35.140625 L 7.734375 -35.140625 L 7.734375 -22.609375 L 16.078125 -22.609375 L 16.078125 -17.828125 L 7.734375 -17.828125 L 7.734375 -4.796875 L 16.578125 -4.796875 L 16.578125 0 Z M 2.296875 0 "/></g></g></g><g fill="#000000" fill-opacity="1"><g transform="translate(318.092829, 240.952838)"><g><path d="M 2.296875 0 L 2.296875 -39.9375 L 10.6875 -39.9375 L 13.28125 -27.25 L 16.53125 -4.796875 L 17.671875 -4.796875 L 16.71875 -24.359375 L 16.328125 -39.9375 L 21.5625 -39.9375 L 21.5625 0 L 12.828125 0 L 10.140625 -13.671875 L 7.484375 -35.1875 L 6.234375 -35.1875 L 7.09375 -15.21875 L 7.53125 0 Z M 2.296875 0 "/></g></g></g><g fill="#000000" fill-opacity="1"><g transform="translate(357.630307, 240.952838)"><g><path d="M 10.984375 0.40625 C 7.984375 0.40625 5.851562 -0.234375 4.59375 -1.515625 C 3.332031 -2.796875 2.632812 -4.921875 2.5 -7.890625 C 2.46875 -9.054688 2.457031 -10.1875 2.46875 -11.28125 C 2.488281 -12.382812 2.546875 -13.535156 2.640625 -14.734375 L 7.734375 -14.734375 C 7.671875 -13.367188 7.628906 -12.019531 7.609375 -10.6875 C 7.597656 -9.351562 7.640625 -8.101562 7.734375 -6.9375 C 7.804688 -5.9375 8.097656 -5.203125 8.609375 -4.734375 C 9.128906 -4.273438 9.921875 -4.046875 10.984375 -4.046875 C 12.015625 -4.046875 12.769531 -4.273438 13.25 -4.734375 C 13.738281 -5.203125 14.015625 -5.9375 14.078125 -6.9375 C 14.179688 -8.070312 14.222656 -9.09375 14.203125 -10 C 14.179688 -10.914062 14.140625 -11.992188 14.078125 -13.234375 C 14.015625 -14.191406 13.816406 -15.019531 13.484375 -15.71875 C 13.148438 -16.425781 12.550781 -16.894531 11.6875 -17.125 L 8.34375 -17.96875 C 6.070312 -18.539062 4.519531 -19.523438 3.6875 -20.921875 C 2.863281 -22.316406 2.414062 -24.210938 2.34375 -26.609375 C 2.34375 -27.503906 2.34375 -28.414062 2.34375 -29.34375 C 2.34375 -30.28125 2.359375 -31.195312 2.390625 -32.09375 C 2.492188 -35.0625 3.1875 -37.175781 4.46875 -38.4375 C 5.75 -39.707031 7.921875 -40.34375 10.984375 -40.34375 C 13.847656 -40.34375 15.925781 -39.707031 17.21875 -38.4375 C 18.519531 -37.175781 19.21875 -35.0625 19.3125 -32.09375 C 19.351562 -31.269531 19.363281 -30.265625 19.34375 -29.078125 C 19.320312 -27.898438 19.296875 -26.710938 19.265625 -25.515625 L 14.078125 -25.515625 C 14.109375 -26.773438 14.128906 -28.03125 14.140625 -29.28125 C 14.160156 -30.53125 14.140625 -31.785156 14.078125 -33.046875 C 14.015625 -34.941406 12.96875 -35.890625 10.9375 -35.890625 C 9.90625 -35.890625 9.140625 -35.65625 8.640625 -35.1875 C 8.140625 -34.726562 7.851562 -34.015625 7.78125 -33.046875 C 7.6875 -31.984375 7.644531 -30.910156 7.65625 -29.828125 C 7.675781 -28.742188 7.71875 -27.671875 7.78125 -26.609375 C 7.851562 -25.515625 8.0625 -24.648438 8.40625 -24.015625 C 8.757812 -23.378906 9.398438 -22.945312 10.328125 -22.71875 L 13.328125 -22.015625 C 15.691406 -21.453125 17.289062 -20.445312 18.125 -19 C 18.957031 -17.550781 19.421875 -15.628906 19.515625 -13.234375 C 19.546875 -12.160156 19.550781 -11.238281 19.53125 -10.46875 C 19.519531 -9.707031 19.5 -8.847656 19.46875 -7.890625 C 19.363281 -4.921875 18.660156 -2.796875 17.359375 -1.515625 C 16.066406 -0.234375 13.941406 0.40625 10.984375 0.40625 Z M 10.984375 0.40625 "/></g></g></g><g fill="#000000" fill-opacity="1"><g transform="translate(395.171048, 240.952838)"><g><path d="M 2.296875 0 L 2.296875 -39.9375 L 7.734375 -39.9375 L 7.734375 0 Z M 2.296875 0 "/></g></g></g><g fill="#000000" fill-opacity="1"><g transform="translate(420.881157, 240.952838)"><g><path d="M 6.9375 0 L 6.9375 -35.140625 L 1.140625 -35.140625 L 1.140625 -39.9375 L 18.078125 -39.9375 L 18.078125 -35.140625 L 12.328125 -35.140625 L 12.328125 0 Z M 6.9375 0 "/></g></g></g><g fill="#000000" fill-opacity="1"><g transform="translate(455.776236, 240.952838)"><g><path d="M 2.296875 0 L 2.296875 -39.9375 L 7.734375 -39.9375 L 7.734375 0 Z M 2.296875 0 "/></g></g></g><g fill="#000000" fill-opacity="1"><g transform="translate(481.486345, 240.952838)"><g><path d="M 6.296875 0 L 1.140625 -39.9375 L 6.734375 -39.9375 L 9.328125 -18.828125 L 10.1875 -4.796875 L 11.28125 -4.796875 L 12.125 -18.828125 L 14.734375 -39.9375 L 20.3125 -39.9375 L 15.21875 0 Z M 6.296875 0 "/></g></g></g><g fill="#000000" fill-opacity="1"><g transform="translate(518.62773, 240.952838)"><g><path d="M 2.296875 0 L 2.296875 -39.9375 L 16.578125 -39.9375 L 16.578125 -35.140625 L 7.734375 -35.140625 L 7.734375 -22.609375 L 16.078125 -22.609375 L 16.078125 -17.828125 L 7.734375 -17.828125 L 7.734375 -4.796875 L 16.578125 -4.796875 L 16.578125 0 Z M 2.296875 0 "/></g></g></g><g fill="#000000" fill-opacity="1"><g transform="translate(552.224912, 240.952838)"><g/></g></g><g fill="#000000" fill-opacity="1"><g transform="translate(578.583947, 240.952838)"><g><path d="M 10.890625 0.453125 C 7.859375 0.453125 5.703125 -0.1875 4.421875 -1.46875 C 3.140625 -2.75 2.460938 -4.875 2.390625 -7.84375 C 2.359375 -10.332031 2.332031 -12.972656 2.3125 -15.765625 C 2.300781 -18.566406 2.300781 -21.363281 2.3125 -24.15625 C 2.332031 -26.957031 2.359375 -29.601562 2.390625 -32.09375 C 2.429688 -34.695312 3.113281 -36.722656 4.4375 -38.171875 C 5.769531 -39.617188 7.921875 -40.34375 10.890625 -40.34375 C 13.816406 -40.34375 15.9375 -39.703125 17.25 -38.421875 C 18.5625 -37.140625 19.25 -35.03125 19.3125 -32.09375 C 19.351562 -31.195312 19.375 -30.097656 19.375 -28.796875 C 19.375 -27.503906 19.351562 -26.410156 19.3125 -25.515625 L 13.921875 -25.515625 C 13.921875 -26.609375 13.929688 -27.851562 13.953125 -29.25 C 13.972656 -30.644531 13.960938 -31.910156 13.921875 -33.046875 C 13.890625 -34.941406 12.878906 -35.890625 10.890625 -35.890625 C 8.890625 -35.890625 7.851562 -34.941406 7.78125 -33.046875 C 7.6875 -28.816406 7.640625 -24.457031 7.640625 -19.96875 C 7.640625 -15.476562 7.6875 -11.117188 7.78125 -6.890625 C 7.851562 -4.960938 8.890625 -4 10.890625 -4 C 13.015625 -4 14.09375 -4.960938 14.125 -6.890625 C 14.15625 -8.054688 14.171875 -9.363281 14.171875 -10.8125 C 14.171875 -12.257812 14.15625 -13.546875 14.125 -14.671875 L 19.515625 -14.671875 C 19.546875 -13.578125 19.5625 -12.445312 19.5625 -11.28125 C 19.5625 -10.113281 19.546875 -8.96875 19.515625 -7.84375 C 19.453125 -4.875 18.742188 -2.75 17.390625 -1.46875 C 16.046875 -0.1875 13.878906 0.453125 10.890625 0.453125 Z M 10.890625 0.453125 "/></g></g></g><g fill="#000000" fill-opacity="1"><g transform="translate(615.326021, 240.952838)"><g><path d="M 2.296875 0 L 2.296875 -39.9375 L 10.1875 -39.9375 C 13.144531 -39.9375 15.296875 -39.300781 16.640625 -38.03125 C 17.992188 -36.769531 18.722656 -34.707031 18.828125 -31.84375 C 18.890625 -30.019531 18.921875 -28.40625 18.921875 -27 C 18.921875 -25.601562 18.890625 -24.09375 18.828125 -22.46875 C 18.691406 -18.738281 17.457031 -16.34375 15.125 -15.28125 L 19.46875 0 L 13.734375 0 L 10.03125 -14.375 L 7.734375 -14.375 L 7.734375 0 Z M 7.734375 -19.171875 L 10.140625 -19.171875 C 12.234375 -19.171875 13.328125 -20.171875 13.421875 -22.171875 C 13.585938 -25.492188 13.585938 -28.800781 13.421875 -32.09375 C 13.328125 -34.125 12.25 -35.140625 10.1875 -35.140625 L 7.734375 -35.140625 Z M 7.734375 -19.171875 "/></g></g></g><g fill="#000000" fill-opacity="1"><g transform="translate(651.668739, 240.952838)"><g><path d="M 2.296875 0 L 2.296875 -39.9375 L 16.578125 -39.9375 L 16.578125 -35.140625 L 7.734375 -35.140625 L 7.734375 -22.609375 L 16.078125 -22.609375 L 16.078125 -17.828125 L 7.734375 -17.828125 L 7.734375 -4.796875 L 16.578125 -4.796875 L 16.578125 0 Z M 2.296875 0 "/></g></g></g><g fill="#000000" fill-opacity="1"><g transform="translate(685.265921, 240.952838)"><g><path d="M 2.296875 0 L 2.296875 -39.9375 L 10.578125 -39.9375 C 13.578125 -39.9375 15.75 -39.28125 17.09375 -37.96875 C 18.445312 -36.65625 19.15625 -34.5 19.21875 -31.5 C 19.28125 -28.769531 19.320312 -26.164062 19.34375 -23.6875 C 19.363281 -21.207031 19.363281 -18.734375 19.34375 -16.265625 C 19.320312 -13.804688 19.28125 -11.210938 19.21875 -8.484375 C 19.15625 -5.453125 18.445312 -3.28125 17.09375 -1.96875 C 15.75 -0.65625 13.5625 0 10.53125 0 Z M 7.734375 -4.796875 L 10.53125 -4.796875 C 12.695312 -4.796875 13.796875 -5.8125 13.828125 -7.84375 C 13.992188 -15.925781 13.992188 -24.007812 13.828125 -32.09375 C 13.796875 -34.125 12.710938 -35.140625 10.578125 -35.140625 L 7.734375 -35.140625 Z M 7.734375 -4.796875 "/></g></g></g><g fill="#000000" fill-opacity="1"><g transform="translate(722.607007, 240.952838)"><g><path d="M 2.296875 0 L 2.296875 -39.9375 L 16.578125 -39.9375 L 16.578125 -35.140625 L 7.734375 -35.140625 L 7.734375 -22.609375 L 16.078125 -22.609375 L 16.078125 -17.828125 L 7.734375 -17.828125 L 7.734375 -4.796875 L 16.578125 -4.796875 L 16.578125 0 Z M 2.296875 0 "/></g></g></g><g fill="#000000" fill-opacity="1"><g transform="translate(756.204189, 240.952838)"><g><path d="M 2.296875 0 L 2.296875 -39.9375 L 10.6875 -39.9375 L 13.28125 -27.25 L 16.53125 -4.796875 L 17.671875 -4.796875 L 16.71875 -24.359375 L 16.328125 -39.9375 L 21.5625 -39.9375 L 21.5625 0 L 12.828125 0 L 10.140625 -13.671875 L 7.484375 -35.1875 L 6.234375 -35.1875 L 7.09375 -15.21875 L 7.53125 0 Z M 2.296875 0 "/></g></g></g><g fill="#000000" fill-opacity="1"><g transform="translate(795.741667, 240.952838)"><g><path d="M 6.9375 0 L 6.9375 -35.140625 L 1.140625 -35.140625 L 1.140625 -39.9375 L 18.078125 -39.9375 L 18.078125 -35.140625 L 12.328125 -35.140625 L 12.328125 0 Z M 6.9375 0 "/></g></g></g><g fill="#000000" fill-opacity="1"><g transform="translate(830.6367, 240.952838)"><g><path d="M 2.296875 0 L 2.296875 -39.9375 L 7.734375 -39.9375 L 7.734375 0 Z M 2.296875 0 "/></g></g></g><g fill="#000000" fill-opacity="1"><g transform="translate(856.346809, 240.952838)"><g><path d="M 1.140625 0 L 6.046875 -39.9375 L 15.03125 -39.9375 L 19.921875 0 L 14.421875 0 L 13.484375 -9.984375 L 7.640625 -9.984375 L 6.6875 0 Z M 8.140625 -14.734375 L 12.9375 -14.734375 L 12.078125 -23.515625 L 11.234375 -35.140625 L 9.828125 -35.140625 L 8.984375 -23.515625 Z M 8.140625 -14.734375 "/></g></g></g><g fill="#000000" fill-opacity="1"><g transform="translate(892.939142, 240.952838)"><g><path d="M 2.296875 0 L 2.296875 -39.9375 L 7.734375 -39.9375 L 7.734375 -4.796875 L 16.625 -4.796875 L 16.625 0 Z M 2.296875 0 "/></g></g></g><g fill="#000000" fill-opacity="1"><g transform="translate(926.386628, 240.952838)"><g><path d="M 10.984375 0.40625 C 7.984375 0.40625 5.851562 -0.234375 4.59375 -1.515625 C 3.332031 -2.796875 2.632812 -4.921875 2.5 -7.890625 C 2.46875 -9.054688 2.457031 -10.1875 2.46875 -11.28125 C 2.488281 -12.382812 2.546875 -13.535156 2.640625 -14.734375 L 7.734375 -14.734375 C 7.671875 -13.367188 7.628906 -12.019531 7.609375 -10.6875 C 7.597656 -9.351562 7.640625 -8.101562 7.734375 -6.9375 C 7.804688 -5.9375 8.097656 -5.203125 8.609375 -4.734375 C 9.128906 -4.273438 9.921875 -4.046875 10.984375 -4.046875 C 12.015625 -4.046875 12.769531 -4.273438 13.25 -4.734375 C 13.738281 -5.203125 14.015625 -5.9375 14.078125 -6.9375 C 14.179688 -8.070312 14.222656 -9.09375 14.203125 -10 C 14.179688 -10.914062 14.140625 -11.992188 14.078125 -13.234375 C 14.015625 -14.191406 13.816406 -15.019531 13.484375 -15.71875 C 13.148438 -16.425781 12.550781 -16.894531 11.6875 -17.125 L 8.34375 -17.96875 C 6.070312 -18.539062 4.519531 -19.523438 3.6875 -20.921875 C 2.863281 -22.316406 2.414062 -24.210938 2.34375 -26.609375 C 2.34375 -27.503906 2.34375 -28.414062 2.34375 -29.34375 C 2.34375 -30.28125 2.359375 -31.195312 2.390625 -32.09375 C 2.492188 -35.0625 3.1875 -37.175781 4.46875 -38.4375 C 5.75 -39.707031 7.921875 -40.34375 10.984375 -40.34375 C 13.847656 -40.34375 15.925781 -39.707031 17.21875 -38.4375 C 18.519531 -37.175781 19.21875 -35.0625 19.3125 -32.09375 C 19.351562 -31.269531 19.363281 -30.265625 19.34375 -29.078125 C 19.320312 -27.898438 19.296875 -26.710938 19.265625 -25.515625 L 14.078125 -25.515625 C 14.109375 -26.773438 14.128906 -28.03125 14.140625 -29.28125 C 14.160156 -30.53125 14.140625 -31.785156 14.078125 -33.046875 C 14.015625 -34.941406 12.96875 -35.890625 10.9375 -35.890625 C 9.90625 -35.890625 9.140625 -35.65625 8.640625 -35.1875 C 8.140625 -34.726562 7.851562 -34.015625 7.78125 -33.046875 C 7.6875 -31.984375 7.644531 -30.910156 7.65625 -29.828125 C 7.675781 -28.742188 7.71875 -27.671875 7.78125 -26.609375 C 7.851562 -25.515625 8.0625 -24.648438 8.40625 -24.015625 C 8.757812 -23.378906 9.398438 -22.945312 10.328125 -22.71875 L 13.328125 -22.015625 C 15.691406 -21.453125 17.289062 -20.445312 18.125 -19 C 18.957031 -17.550781 19.421875 -15.628906 19.515625 -13.234375 C 19.546875 -12.160156 19.550781 -11.238281 19.53125 -10.46875 C 19.519531 -9.707031 19.5 -8.847656 19.46875 -7.890625 C 19.363281 -4.921875 18.660156 -2.796875 17.359375 -1.515625 C 16.066406 -0.234375 13.941406 0.40625 10.984375 0.40625 Z M 10.984375 0.40625 "/></g></g></g><g fill="#000000" fill-opacity="1"><g transform="translate(963.927324, 240.952838)"><g/></g></g><g fill="#000000" fill-opacity="1"><g transform="translate(990.286404, 240.952838)"><g><path d="M 10.984375 0.40625 C 7.984375 0.40625 5.851562 -0.234375 4.59375 -1.515625 C 3.332031 -2.796875 2.632812 -4.921875 2.5 -7.890625 C 2.46875 -9.054688 2.457031 -10.1875 2.46875 -11.28125 C 2.488281 -12.382812 2.546875 -13.535156 2.640625 -14.734375 L 7.734375 -14.734375 C 7.671875 -13.367188 7.628906 -12.019531 7.609375 -10.6875 C 7.597656 -9.351562 7.640625 -8.101562 7.734375 -6.9375 C 7.804688 -5.9375 8.097656 -5.203125 8.609375 -4.734375 C 9.128906 -4.273438 9.921875 -4.046875 10.984375 -4.046875 C 12.015625 -4.046875 12.769531 -4.273438 13.25 -4.734375 C 13.738281 -5.203125 14.015625 -5.9375 14.078125 -6.9375 C 14.179688 -8.070312 14.222656 -9.09375 14.203125 -10 C 14.179688 -10.914062 14.140625 -11.992188 14.078125 -13.234375 C 14.015625 -14.191406 13.816406 -15.019531 13.484375 -15.71875 C 13.148438 -16.425781 12.550781 -16.894531 11.6875 -17.125 L 8.34375 -17.96875 C 6.070312 -18.539062 4.519531 -19.523438 3.6875 -20.921875 C 2.863281 -22.316406 2.414062 -24.210938 2.34375 -26.609375 C 2.34375 -27.503906 2.34375 -28.414062 2.34375 -29.34375 C 2.34375 -30.28125 2.359375 -31.195312 2.390625 -32.09375 C 2.492188 -35.0625 3.1875 -37.175781 4.46875 -38.4375 C 5.75 -39.707031 7.921875 -40.34375 10.984375 -40.34375 C 13.847656 -40.34375 15.925781 -39.707031 17.21875 -38.4375 C 18.519531 -37.175781 19.21875 -35.0625 19.3125 -32.09375 C 19.351562 -31.269531 19.363281 -30.265625 19.34375 -29.078125 C 19.320312 -27.898438 19.296875 -26.710938 19.265625 -25.515625 L 14.078125 -25.515625 C 14.109375 -26.773438 14.128906 -28.03125 14.140625 -29.28125 C 14.160156 -30.53125 14.140625 -31.785156 14.078125 -33.046875 C 14.015625 -34.941406 12.96875 -35.890625 10.9375 -35.890625 C 9.90625 -35.890625 9.140625 -35.65625 8.640625 -35.1875 C 8.140625 -34.726562 7.851562 -34.015625 7.78125 -33.046875 C 7.6875 -31.984375 7.644531 -30.910156 7.65625 -29.828125 C 7.675781 -28.742188 7.71875 -27.671875 7.78125 -26.609375 C 7.851562 -25.515625 8.0625 -24.648438 8.40625 -24.015625 C 8.757812 -23.378906 9.398438 -22.945312 10.328125 -22.71875 L 13.328125 -22.015625 C 15.691406 -21.453125 17.289062 -20.445312 18.125 -19 C 18.957031 -17.550781 19.421875 -15.628906 19.515625 -13.234375 C 19.546875 -12.160156 19.550781 -11.238281 19.53125 -10.46875 C 19.519531 -9.707031 19.5 -8.847656 19.46875 -7.890625 C 19.363281 -4.921875 18.660156 -2.796875 17.359375 -1.515625 C 16.066406 -0.234375 13.941406 0.40625 10.984375 0.40625 Z M 10.984375 0.40625 "/></g></g></g><g fill="#000000" fill-opacity="1"><g transform="translate(1027.8271, 240.952838)"><g><path d="M 1.140625 0 L 6.046875 -39.9375 L 15.03125 -39.9375 L 19.921875 0 L 14.421875 0 L 13.484375 -9.984375 L 7.640625 -9.984375 L 6.6875 0 Z M 8.140625 -14.734375 L 12.9375 -14.734375 L 12.078125 -23.515625 L 11.234375 -35.140625 L 9.828125 -35.140625 L 8.984375 -23.515625 Z M 8.140625 -14.734375 "/></g></g></g><g fill="#000000" fill-opacity="1"><g transform="translate(1064.419433, 240.952838)"><g><path d="M 2.296875 0 L 2.296875 -39.9375 L 16.578125 -39.9375 L 16.578125 -35.140625 L 7.734375 -35.140625 L 7.734375 -22.609375 L 16.078125 -22.609375 L 16.078125 -17.828125 L 7.734375 -17.828125 L 7.734375 0 Z M 2.296875 0 "/></g></g></g><g fill="#000000" fill-opacity="1"><g transform="translate(1098.01666, 240.952838)"><g><path d="M 2.296875 0 L 2.296875 -39.9375 L 16.578125 -39.9375 L 16.578125 -35.140625 L 7.734375 -35.140625 L 7.734375 -22.609375 L 16.078125 -22.609375 L 16.078125 -17.828125 L 7.734375 -17.828125 L 7.734375 -4.796875 L 16.578125 -4.796875 L 16.578125 0 Z M 2.296875 0 "/></g></g></g><g fill="#000000" fill-opacity="1"><g transform="translate(1131.613888, 240.952838)"><g><path d="M 2.296875 0 L 2.296875 -39.9375 L 7.734375 -39.9375 L 7.734375 -4.796875 L 16.625 -4.796875 L 16.625 0 Z M 2.296875 0 "/></g></g></g><g fill="#000000" fill-opacity="1"><g transform="translate(1165.061283, 240.952838)"><g><path d="M 7.640625 0 L 7.640625 -9.984375 L 7.1875 -12.03125 L 1.140625 -39.9375 L 6.6875 -39.9375 L 8.640625 -29.453125 L 9.78125 -17.875 L 10.890625 -17.875 L 12.03125 -29.453125 L 13.984375 -39.9375 L 19.515625 -39.9375 L 13.484375 -12.03125 L 13.03125 -9.984375 L 13.03125 0 Z M 7.640625 0 "/></g></g></g></svg>